<svg width="52" height="52" viewBox="0 0 52 52" fill="none" xmlns="http://www.w3.org/2000/svg">
<g opacity="0.8">
<path d="M38.9999 21.667C40.6679 21.6669 42.3005 22.1481 43.7017 23.0529C45.103 23.9578 46.2133 25.2477 46.8996 26.768C47.5858 28.2882 47.8188 29.9742 47.5705 31.6236C47.3223 33.273 46.6033 34.8158 45.4999 36.0667V45.1493C45.5 45.5556 45.3962 45.9552 45.1984 46.3101C45.0005 46.665 44.7153 46.9634 44.3697 47.177C44.0241 47.3906 43.6296 47.5123 43.2237 47.5306C42.8178 47.5489 42.414 47.463 42.0506 47.2813L38.9999 45.756L35.9493 47.2813C35.5859 47.463 35.182 47.5489 34.7762 47.5306C34.3703 47.5123 33.9758 47.3906 33.6302 47.177C33.2846 46.9634 32.9993 46.665 32.8015 46.3101C32.6037 45.9552 32.4999 45.5556 32.4999 45.1493V36.0667C31.3966 34.8158 30.6776 33.273 30.4293 31.6236C30.181 29.9742 30.414 28.2882 31.1003 26.768C31.7865 25.2477 32.8969 23.9578 34.2981 23.0529C35.6994 22.1481 37.3319 21.6669 38.9999 21.667ZM43.3333 8.66699C44.4825 8.66699 45.5847 9.12354 46.3974 9.9362C47.21 10.7489 47.6666 11.8511 47.6666 13.0003V17.3337C47.6666 17.9083 47.4383 18.4594 47.032 18.8657C46.6257 19.2721 46.0746 19.5003 45.4999 19.5003C44.9253 19.5003 44.3742 19.2721 43.9679 18.8657C43.5615 18.4594 43.3333 17.9083 43.3333 17.3337V13.0003H8.66659V39.0003H25.9999C26.5746 39.0003 27.1257 39.2286 27.532 39.6349C27.9383 40.0413 28.1666 40.5924 28.1666 41.167C28.1666 41.7416 27.9383 42.2927 27.532 42.6991C27.1257 43.1054 26.5746 43.3337 25.9999 43.3337H8.66659C7.51731 43.3337 6.41511 42.8771 5.60246 42.0645C4.7898 41.2518 4.33325 40.1496 4.33325 39.0003V13.0003C4.33325 11.8511 4.7898 10.7489 5.60246 9.9362C6.41511 9.12354 7.51731 8.66699 8.66659 8.66699H43.3333ZM41.1666 38.7273C39.7454 39.0943 38.2544 39.0943 36.8333 38.7273V41.9947L38.0314 41.3967C38.3322 41.2464 38.6637 41.1681 38.9999 41.1681C39.3361 41.1681 39.6677 41.2464 39.9684 41.3967L41.1666 41.9947V38.7273ZM38.9999 26.0003C37.8506 26.0003 36.7484 26.4569 35.9358 27.2695C35.1231 28.0822 34.6666 29.1844 34.6666 30.3337C34.6666 31.4829 35.1231 32.5851 35.9358 33.3978C36.7484 34.2104 37.8506 34.667 38.9999 34.667C40.1492 34.667 41.2514 34.2104 42.064 33.3978C42.8767 32.5851 43.3333 31.4829 43.3333 30.3337C43.3333 29.1844 42.8767 28.0822 42.064 27.2695C41.2514 26.4569 40.1492 26.0003 38.9999 26.0003ZM19.4999 28.167C20.0522 28.1676 20.5833 28.3791 20.9849 28.7582C21.3864 29.1373 21.6281 29.6554 21.6605 30.2067C21.6928 30.758 21.5135 31.3008 21.159 31.7243C20.8046 32.1478 20.3018 32.4199 19.7534 32.4852L19.4999 32.5003H15.1666C14.6143 32.4997 14.0832 32.2883 13.6816 31.9092C13.2801 31.5301 13.0384 31.0119 13.006 30.4606C12.9737 29.9093 13.153 29.3665 13.5075 28.943C13.8619 28.5195 14.3647 28.2474 14.9131 28.1822L15.1666 28.167H19.4999ZM28.1666 19.5003C28.7412 19.5003 29.2923 19.7286 29.6987 20.1349C30.105 20.5413 30.3333 21.0924 30.3333 21.667C30.3333 22.2416 30.105 22.7927 29.6987 23.1991C29.2923 23.6054 28.7412 23.8337 28.1666 23.8337H15.1666C14.5919 23.8337 14.0409 23.6054 13.6345 23.1991C13.2282 22.7927 12.9999 22.2416 12.9999 21.667C12.9999 21.0924 13.2282 20.5413 13.6345 20.1349C14.0409 19.7286 14.5919 19.5003 15.1666 19.5003H28.1666Z" fill="black"/>
</g>
</svg>
