<svg width="52" height="52" viewBox="0 0 52 52" fill="none" xmlns="http://www.w3.org/2000/svg">
<g opacity="0.7">
<path d="M26.0001 15.1666C30.5972 15.1666 35.006 16.9927 38.2566 20.2434C41.5072 23.494 43.3334 27.9028 43.3334 32.4999C43.3334 37.097 41.5072 41.5058 38.2566 44.7564C35.006 48.007 30.5972 49.8332 26.0001 49.8332C21.403 49.8332 16.9942 48.007 13.7436 44.7564C10.4929 41.5058 8.66675 37.097 8.66675 32.4999C8.66675 27.9028 10.4929 23.494 13.7436 20.2434C16.9942 16.9927 21.403 15.1666 26.0001 15.1666ZM26.0001 22.7499L23.1357 28.5566L16.7267 29.4882L21.3634 34.0057L20.2692 40.3887L26.0001 37.3749L31.7309 40.3866L30.6367 34.0057L35.2734 29.4861L28.8644 28.5544L26.0001 22.7499ZM28.1667 4.33105L39.0001 4.33322V10.8332L36.0469 13.2989C33.5969 12.0121 30.9209 11.2116 28.1667 10.9416V4.33105ZM23.8334 4.33105V10.9394C21.08 11.2097 18.4048 12.0102 15.9554 13.2967L13.0001 10.8332V4.33322L23.8334 4.33105Z" fill="black"/>
</g>
</svg>
